<svg id="kity_svg_11" xmlns="http://www.w3.org/2000/svg" xmlns:xlink="http://www.w3.org/1999/xlink" version="1.1" width="728" height="1012" style="background: rgb(255, 255, 255) none repeat scroll 0% 0%; visibility: visible;" viewBox="0 0 728 1012"><defs id="kity_defs_12"><linearGradient id="kity_linearGradient_23" x1="0" y1="0" x2="0" y2="1"><stop id="kity_stop_24" offset="0" stop-color="rgb(67, 188, 0)"></stop><stop id="kity_stop_25" offset="1" stop-color="rgb(67, 188, 0)"></stop></linearGradient><marker id="kity_marker_0" orient="auto" markerWidth="13" markerHeight="13" refX="12" refY="6"><path id="kity_path_1" fill="#3982fc" stroke="none" d="M2,2 L4,6 L2,11 L12,6 Z"></path></marker><g id="symbol-nwse-resize" style="cursor: pointer;"><path id="kity_path_3" fill="white" stroke="#ccc" d="M16,6A10,10,0,1,1,-4,6A10,10,0,1,1,16,6"></path><path id="kity_path_4" fill="#fdaa28" stroke="none" d="M11.3 12.4l-3.8-.5c-.4 0-.7-.3-.8-.7-.1-.4 0-.8.2-1l.8-.8-4.2-4.2-.8.8c-.2.2-.4.3-.7.3-.5 0-.9-.4-1-.9L.5 1.6c0-.3.1-.6.2-.8.2-.2.5-.3.7-.3h.1l3.8.5c.4 0 .7.3.8.7.1.4 0 .8-.2 1l-.8.8 4.2 4.2.8-.8c.2-.2.4-.3.7-.3.5 0 .9.4 1 .9l.5 3.8c0 .3-.1.6-.2.8-.2.2-.5.3-.7.3h-.1"></path></g></defs><g id="kity_g_13"><g id="minder1" text-rendering="optimize-speed"><g id="minder_connect_group1" stroke-linecap="round"><path id="kity_path_39" fill="none" stroke="rgb(180, 228, 164)" stroke-width="2" d="M61,507.00006103515625A98,434,0,0,1,159,73.00006103515625"></path><path id="kity_path_41" fill="none" stroke="rgb(180, 228, 164)" stroke-width="1" d="M212.5,72.50006103515625C232.5,72.50006103515625,232.5,32.50006103515625,252.5,32.50006103515625"></path><path id="kity_path_43" fill="none" stroke="rgb(180, 228, 164)" stroke-width="1" d="M212.5,72.50006103515625C232.5,72.50006103515625,232.5,72.50006103515625,252.5,72.50006103515625"></path><path id="kity_path_45" fill="none" stroke="rgb(180, 228, 164)" stroke-width="1" d="M212.5,72.50006103515625C232.5,72.50006103515625,232.5,112.50006103515625,252.5,112.50006103515625"></path><path id="kity_path_47" fill="none" stroke="rgb(180, 228, 164)" stroke-width="2" d="M61,507.00006103515625A98,310,0,0,1,159,197.00006103515625"></path><path id="kity_path_49" fill="none" stroke="rgb(180, 228, 164)" stroke-width="1" d="M228.5,196.50006103515625C248.5,196.50006103515625,248.5,156.50006103515625,268.5,156.50006103515625"></path><path id="kity_path_51" fill="none" stroke="rgb(180, 228, 164)" stroke-width="1" d="M228.5,196.50006103515625C248.5,196.50006103515625,248.5,196.50006103515625,268.5,196.50006103515625"></path><path id="kity_path_53" fill="none" stroke="rgb(180, 228, 164)" stroke-width="1" d="M228.5,196.50006103515625C248.5,196.50006103515625,248.5,236.50006103515625,268.5,236.50006103515625"></path><path id="kity_path_55" fill="none" stroke="rgb(180, 228, 164)" stroke-width="2" d="M61,507.00006103515625A98,186,0,0,1,159,321.00006103515625"></path><path id="kity_path_57" fill="none" stroke="rgb(180, 228, 164)" stroke-width="1" d="M228.5,320.50006103515625C248.5,320.50006103515625,248.5,280.50006103515625,268.5,280.50006103515625"></path><path id="kity_path_59" fill="none" stroke="rgb(180, 228, 164)" stroke-width="1" d="M228.5,320.50006103515625C248.5,320.50006103515625,248.5,320.50006103515625,268.5,320.50006103515625"></path><path id="kity_path_61" fill="none" stroke="rgb(180, 228, 164)" stroke-width="1" d="M228.5,320.50006103515625C248.5,320.50006103515625,248.5,360.50006103515625,268.5,360.50006103515625"></path><path id="kity_path_63" fill="none" stroke="rgb(180, 228, 164)" stroke-width="2" d="M61,507.00006103515625A98,62,0,0,1,159,445.00006103515625"></path><path id="kity_path_65" fill="none" stroke="rgb(180, 228, 164)" stroke-width="1" d="M228.5,444.50006103515625C248.5,444.50006103515625,248.5,404.50006103515625,268.5,404.50006103515625"></path><path id="kity_path_67" fill="none" stroke="rgb(180, 228, 164)" stroke-width="1" d="M228.5,444.50006103515625C248.5,444.50006103515625,248.5,444.50006103515625,268.5,444.50006103515625"></path><path id="kity_path_69" fill="none" stroke="rgb(180, 228, 164)" stroke-width="1" d="M228.5,444.50006103515625C248.5,444.50006103515625,248.5,484.50006103515625,268.5,484.50006103515625"></path><path id="kity_path_71" fill="none" stroke="rgb(180, 228, 164)" stroke-width="2" d="M61,507.00006103515625A98,62,0,0,0,159,569.0000610351562"></path><path id="kity_path_73" fill="none" stroke="rgb(180, 228, 164)" stroke-width="1" d="M228.5,568.5000610351562C248.5,568.5000610351562,248.5,528.5000610351562,268.5,528.5000610351562"></path><path id="kity_path_75" fill="none" stroke="rgb(180, 228, 164)" stroke-width="1" d="M228.5,568.5000610351562C248.5,568.5000610351562,248.5,568.5000610351562,268.5,568.5000610351562"></path><path id="kity_path_77" fill="none" stroke="rgb(180, 228, 164)" stroke-width="1" d="M228.5,568.5000610351562C248.5,568.5000610351562,248.5,608.5000610351562,268.5,608.5000610351562"></path><path id="kity_path_79" fill="none" stroke="rgb(180, 228, 164)" stroke-width="2" d="M61,507.00006103515625A98,186,0,0,0,159,693.0000610351562"></path><path id="kity_path_81" fill="none" stroke="rgb(180, 228, 164)" stroke-width="1" d="M228.5,692.5000610351562C248.5,692.5000610351562,248.5,652.5000610351562,268.5,652.5000610351562"></path><path id="kity_path_83" fill="none" stroke="rgb(180, 228, 164)" stroke-width="1" d="M228.5,692.5000610351562C248.5,692.5000610351562,248.5,692.5000610351562,268.5,692.5000610351562"></path><path id="kity_path_85" fill="none" stroke="rgb(180, 228, 164)" stroke-width="1" d="M228.5,692.5000610351562C248.5,692.5000610351562,248.5,732.5000610351562,268.5,732.5000610351562"></path><path id="kity_path_87" fill="none" stroke="rgb(180, 228, 164)" stroke-width="2" d="M61,507.00006103515625A98,310,0,0,0,159,817.0000610351562"></path><path id="kity_path_89" fill="none" stroke="rgb(180, 228, 164)" stroke-width="1" d="M228.5,816.5000610351562C248.5,816.5000610351562,248.5,776.5000610351562,268.5,776.5000610351562"></path><path id="kity_path_91" fill="none" stroke="rgb(180, 228, 164)" stroke-width="1" d="M228.5,816.5000610351562C248.5,816.5000610351562,248.5,816.5000610351562,268.5,816.5000610351562"></path><path id="kity_path_93" fill="none" stroke="rgb(180, 228, 164)" stroke-width="1" d="M228.5,816.5000610351562C248.5,816.5000610351562,248.5,856.5000610351562,268.5,856.5000610351562"></path><path id="kity_path_95" fill="none" stroke="rgb(180, 228, 164)" stroke-width="2" d="M61,507.00006103515625A98,434,0,0,0,159,941.0000610351562"></path><path id="kity_path_97" fill="none" stroke="rgb(180, 228, 164)" stroke-width="1" d="M228.5,940.5000610351562C248.5,940.5000610351562,248.5,900.5000610351562,268.5,900.5000610351562"></path><path id="kity_path_99" fill="none" stroke="rgb(180, 228, 164)" stroke-width="1" d="M228.5,940.5000610351562C248.5,940.5000610351562,248.5,940.5000610351562,268.5,940.5000610351562"></path><path id="kity_path_101" fill="none" stroke="rgb(180, 228, 164)" stroke-width="1" d="M228.5,940.5000610351562C248.5,940.5000610351562,248.5,980.5000610351562,268.5,980.5000610351562"></path></g><g id="minder_generalize_group1"></g><g id="minder_rel_line_group1"></g><g id="minder_node1"><path id="node_outline1" fill="rgb(128, 211, 53)" stroke="rgb(254, 219, 0)" d="M25.5,406.50006103515625h70a5,5,0,0,1,5,5v190a5,5,0,0,1,-5,5h-70a5,5,0,0,1,-5,-5v-190a5,5,0,0,1,5,-5z" stroke-width="3"></path><g id="node_text1" fill="#fff"><text id="kity_text_30" text-rendering="inherit" font-size="20" dy="1em" y="418.300048828125" x="50.5">汉</text><text id="kity_text_294" text-rendering="inherit" font-size="20" dy="1em" y="448.300048828125" x="50.5">族</text><text id="kity_text_295" text-rendering="inherit" font-size="20" dy="1em" y="478.300048828125" x="50.5">传</text><text id="kity_text_296" text-rendering="inherit" font-size="20" dy="1em" y="508.300048828125" x="50.5">统</text><text id="kity_text_297" text-rendering="inherit" font-size="20" dy="1em" y="538.300048828125" x="50.5">节</text><text id="kity_text_298" text-rendering="inherit" font-size="20" dy="1em" y="568.300048828125" x="50.5">日 </text></g></g><g id="kity_g_17" display="none"><path id="kity_path_18" fill="none" stroke="none" d="M50.5,506.50006103515625h0v0h0z"></path></g><g id="kity_g_19"><path id="kity_path_20" fill="none" stroke="none" d="M50.5,506.50006103515625h0v0h0z"></path><path id="kity_path_21" fill="none" stroke="none"></path></g><g id="minder_node2"><g id="node_expander4" style="cursor: pointer;"><path id="kity_path_208" fill="white" stroke="gray" d="M160.5,72.50006103515625A6,6,0,1,1,148.5,72.50006103515625A6,6,0,1,1,160.5,72.50006103515625"></path><path id="kity_path_209" fill="none" stroke="gray" d="M150,72.50006103515625L159,72.50006103515625"></path></g><path id="node_outline5" fill="#f2fae9" stroke="transparent" d="M165.5,59.50006103515625h42a5,5,0,0,1,5,5v16a5,5,0,0,1,-5,5h-42a5,5,0,0,1,-5,-5v-16a5,5,0,0,1,5,-5z" stroke-width="0"></path><g id="node_text5" fill="#333"><text id="kity_text_109" text-rendering="inherit" font-size="16" dy="1em" y="61.9400634765625" x="170.5">春节</text></g></g><g id="minder_node3"><g id="node_expander1" style="cursor: pointer;" display="none"><path id="kity_path_199" fill="white" stroke="gray" d="M252.5,32.50006103515625A6,6,0,1,1,240.5,32.50006103515625A6,6,0,1,1,252.5,32.50006103515625"></path><path id="kity_path_200" fill="none" stroke="gray"></path></g><path id="node_outline2" fill="none" stroke="none" d="M257.5,20.50006103515625h206a5,5,0,0,1,5,5v14a5,5,0,0,1,-5,5h-206a5,5,0,0,1,-5,-5v-14a5,5,0,0,1,5,-5z" stroke-width="0"></path><g id="node_text2" fill="#333"><text id="kity_text_103" text-rendering="inherit" font-size="14" dy="1em" y="23.26007080078125" x="262.5">正月初一（古称元旦、元日等）</text></g></g><g id="minder_node4"><g id="node_expander2" style="cursor: pointer;" display="none"><path id="kity_path_202" fill="white" stroke="gray" d="M252.5,72.50006103515625A6,6,0,1,1,240.5,72.50006103515625A6,6,0,1,1,252.5,72.50006103515625"></path><path id="kity_path_203" fill="none" stroke="gray"></path></g><path id="node_outline3" fill="none" stroke="none" d="M257.5,60.50006103515625h388a5,5,0,0,1,5,5v14a5,5,0,0,1,-5,5h-388a5,5,0,0,1,-5,-5v-14a5,5,0,0,1,5,-5z" stroke-width="0"></path><g id="node_text3" fill="#333"><text id="kity_text_105" text-rendering="inherit" font-size="14" dy="1em" y="63.26007080078125" x="262.5">主要习俗：祭灶、扫尘、贴春联、除夕守岁、拜年、给压岁钱</text></g></g><g id="minder_node5"><g id="node_expander3" style="cursor: pointer;" display="none"><path id="kity_path_205" fill="white" stroke="gray" d="M252.5,112.50006103515625A6,6,0,1,1,240.5,112.50006103515625A6,6,0,1,1,252.5,112.50006103515625"></path><path id="kity_path_206" fill="none" stroke="gray"></path></g><path id="node_outline4" fill="none" stroke="none" d="M257.5,100.50006103515625h164a5,5,0,0,1,5,5v14a5,5,0,0,1,-5,5h-164a5,5,0,0,1,-5,-5v-14a5,5,0,0,1,5,-5z" stroke-width="0"></path><g id="node_text4" fill="#333"><text id="kity_text_107" text-rendering="inherit" font-size="14" dy="1em" y="103.26007080078125" x="262.5">相关诗词（桃符、爆竹）</text></g></g><g id="minder_node6"><g id="node_expander8" style="cursor: pointer;"><path id="kity_path_220" fill="white" stroke="gray" d="M160.5,196.50006103515625A6,6,0,1,1,148.5,196.50006103515625A6,6,0,1,1,160.5,196.50006103515625"></path><path id="kity_path_221" fill="none" stroke="gray" d="M150,196.50006103515625L159,196.50006103515625"></path></g><path id="node_outline9" fill="#f2fae9" stroke="transparent" d="M165.5,183.50006103515625h58a5,5,0,0,1,5,5v16a5,5,0,0,1,-5,5h-58a5,5,0,0,1,-5,-5v-16a5,5,0,0,1,5,-5z" stroke-width="0"></path><g id="node_text9" fill="#333"><text id="kity_text_117" text-rendering="inherit" font-size="16" dy="1em" y="185.9400634765625" x="170.5">元宵节</text></g></g><g id="minder_node7"><g id="node_expander5" style="cursor: pointer;" display="none"><path id="kity_path_211" fill="white" stroke="gray" d="M268.5,156.50006103515625A6,6,0,1,1,256.5,156.50006103515625A6,6,0,1,1,268.5,156.50006103515625"></path><path id="kity_path_212" fill="none" stroke="gray"></path></g><path id="node_outline6" fill="none" stroke="none" d="M273.5,144.50006103515625h220a5,5,0,0,1,5,5v14a5,5,0,0,1,-5,5h-220a5,5,0,0,1,-5,-5v-14a5,5,0,0,1,5,-5z" stroke-width="0"></path><g id="node_text6" fill="#333"><text id="kity_text_111" text-rendering="inherit" font-size="14" dy="1em" y="147.26007080078125" x="278.5">正月十五（古称上元节、元夕等）</text></g></g><g id="minder_node8"><g id="node_expander6" style="cursor: pointer;" display="none"><path id="kity_path_214" fill="white" stroke="gray" d="M268.5,196.50006103515625A6,6,0,1,1,256.5,196.50006103515625A6,6,0,1,1,268.5,196.50006103515625"></path><path id="kity_path_215" fill="none" stroke="gray"></path></g><path id="node_outline7" fill="none" stroke="none" d="M273.5,184.50006103515625h304a5,5,0,0,1,5,5v14a5,5,0,0,1,-5,5h-304a5,5,0,0,1,-5,-5v-14a5,5,0,0,1,5,-5z" stroke-width="0"></path><g id="node_text7" fill="#333"><text id="kity_text_113" text-rendering="inherit" font-size="14" dy="1em" y="187.26007080078125" x="278.5">主要习俗：吃元宵、赏花灯、猜灯谜、迎紫姑等</text></g></g><g id="minder_node9"><g id="node_expander7" style="cursor: pointer;" display="none"><path id="kity_path_217" fill="white" stroke="gray" d="M268.5,236.50006103515625A6,6,0,1,1,256.5,236.50006103515625A6,6,0,1,1,268.5,236.50006103515625"></path><path id="kity_path_218" fill="none" stroke="gray"></path></g><path id="node_outline8" fill="none" stroke="none" d="M273.5,224.50006103515625h332a5,5,0,0,1,5,5v14a5,5,0,0,1,-5,5h-332a5,5,0,0,1,-5,-5v-14a5,5,0,0,1,5,-5z" stroke-width="0"></path><g id="node_text8" fill="#333"><text id="kity_text_115" text-rendering="inherit" font-size="14" dy="1em" y="227.26007080078125" x="278.5">相关诗词（元夕、花灯、紫姑、火树银花、不禁夜）</text></g></g><g id="minder_node10"><g id="node_expander12" style="cursor: pointer;"><path id="kity_path_232" fill="white" stroke="gray" d="M160.5,320.50006103515625A6,6,0,1,1,148.5,320.50006103515625A6,6,0,1,1,160.5,320.50006103515625"></path><path id="kity_path_233" fill="none" stroke="gray" d="M150,320.50006103515625L159,320.50006103515625"></path></g><path id="node_outline13" fill="#f2fae9" stroke="transparent" d="M165.5,307.50006103515625h58a5,5,0,0,1,5,5v16a5,5,0,0,1,-5,5h-58a5,5,0,0,1,-5,-5v-16a5,5,0,0,1,5,-5z" stroke-width="0"></path><g id="node_text13" fill="#333"><text id="kity_text_125" text-rendering="inherit" font-size="16" dy="1em" y="309.9400634765625" x="170.5">寒食节</text></g></g><g id="minder_node11"><g id="node_expander9" style="cursor: pointer;" display="none"><path id="kity_path_223" fill="white" stroke="gray" d="M268.5,280.50006103515625A6,6,0,1,1,256.5,280.50006103515625A6,6,0,1,1,268.5,280.50006103515625"></path><path id="kity_path_224" fill="none" stroke="gray"></path></g><path id="node_outline10" fill="none" stroke="none" d="M273.5,268.50006103515625h94a5,5,0,0,1,5,5v14a5,5,0,0,1,-5,5h-94a5,5,0,0,1,-5,-5v-14a5,5,0,0,1,5,-5z" stroke-width="0"></path><g id="node_text10" fill="#333"><text id="kity_text_119" text-rendering="inherit" font-size="14" dy="1em" y="271.26007080078125" x="278.5">清明节前两天</text></g></g><g id="minder_node12"><g id="node_expander10" style="cursor: pointer;" display="none"><path id="kity_path_226" fill="white" stroke="gray" d="M268.5,320.50006103515625A6,6,0,1,1,256.5,320.50006103515625A6,6,0,1,1,268.5,320.50006103515625"></path><path id="kity_path_227" fill="none" stroke="gray"></path></g><path id="node_outline11" fill="none" stroke="none" d="M273.5,308.50006103515625h178a5,5,0,0,1,5,5v14a5,5,0,0,1,-5,5h-178a5,5,0,0,1,-5,-5v-14a5,5,0,0,1,5,-5z" stroke-width="0"></path><g id="node_text11" fill="#333"><text id="kity_text_121" text-rendering="inherit" font-size="14" dy="1em" y="311.26007080078125" x="278.5">主要习俗：禁烟火、食冷食</text></g></g><g id="minder_node13"><g id="node_expander11" style="cursor: pointer;" display="none"><path id="kity_path_229" fill="white" stroke="gray" d="M268.5,360.50006103515625A6,6,0,1,1,256.5,360.50006103515625A6,6,0,1,1,268.5,360.50006103515625"></path><path id="kity_path_230" fill="none" stroke="gray"></path></g><path id="node_outline12" fill="none" stroke="none" d="M273.5,348.50006103515625h220a5,5,0,0,1,5,5v14a5,5,0,0,1,-5,5h-220a5,5,0,0,1,-5,-5v-14a5,5,0,0,1,5,-5z" stroke-width="0"></path><g id="node_text12" fill="#333"><text id="kity_text_123" text-rendering="inherit" font-size="14" dy="1em" y="351.26007080078125" x="278.5">相关诗词：（寒食、冷食、禁烟）</text></g></g><g id="minder_node14"><g id="node_expander16" style="cursor: pointer;"><path id="kity_path_244" fill="white" stroke="gray" d="M160.5,444.50006103515625A6,6,0,1,1,148.5,444.50006103515625A6,6,0,1,1,160.5,444.50006103515625"></path><path id="kity_path_245" fill="none" stroke="gray" d="M150,444.50006103515625L159,444.50006103515625"></path></g><path id="node_outline17" fill="#f2fae9" stroke="transparent" d="M165.5,431.50006103515625h58a5,5,0,0,1,5,5v16a5,5,0,0,1,-5,5h-58a5,5,0,0,1,-5,-5v-16a5,5,0,0,1,5,-5z" stroke-width="0"></path><g id="node_text17" fill="#333"><text id="kity_text_133" text-rendering="inherit" font-size="16" dy="1em" y="433.9400634765625" x="170.5">清明节</text></g></g><g id="minder_node15"><g id="node_expander13" style="cursor: pointer;" display="none"><path id="kity_path_235" fill="white" stroke="gray" d="M268.5,404.50006103515625A6,6,0,1,1,256.5,404.50006103515625A6,6,0,1,1,268.5,404.50006103515625"></path><path id="kity_path_236" fill="none" stroke="gray"></path></g><path id="node_outline14" fill="none" stroke="none" d="M273.5,392.50006103515625h94a5,5,0,0,1,5,5v14a5,5,0,0,1,-5,5h-94a5,5,0,0,1,-5,-5v-14a5,5,0,0,1,5,-5z" stroke-width="0"></path><g id="node_text14" fill="#333"><text id="kity_text_127" text-rendering="inherit" font-size="14" dy="1em" y="395.26007080078125" x="278.5">春分后十五日</text></g></g><g id="minder_node16"><g id="node_expander14" style="cursor: pointer;" display="none"><path id="kity_path_238" fill="white" stroke="gray" d="M268.5,444.50006103515625A6,6,0,1,1,256.5,444.50006103515625A6,6,0,1,1,268.5,444.50006103515625"></path><path id="kity_path_239" fill="none" stroke="gray"></path></g><path id="node_outline15" fill="none" stroke="none" d="M273.5,432.50006103515625h360a5,5,0,0,1,5,5v14a5,5,0,0,1,-5,5h-360a5,5,0,0,1,-5,-5v-14a5,5,0,0,1,5,-5z" stroke-width="0"></path><g id="node_text15" fill="#333"><text id="kity_text_129" text-rendering="inherit" font-size="14" dy="1em" y="435.26007080078125" x="278.5">主要习俗：扫墓、戴柳、植树、踏青、荡秋千、放风筝等</text></g></g><g id="minder_node17"><g id="node_expander15" style="cursor: pointer;" display="none"><path id="kity_path_241" fill="white" stroke="gray" d="M268.5,484.50006103515625A6,6,0,1,1,256.5,484.50006103515625A6,6,0,1,1,268.5,484.50006103515625"></path><path id="kity_path_242" fill="none" stroke="gray"></path></g><path id="node_outline16" fill="none" stroke="none" d="M273.5,472.50006103515625h122a5,5,0,0,1,5,5v14a5,5,0,0,1,-5,5h-122a5,5,0,0,1,-5,-5v-14a5,5,0,0,1,5,-5z" stroke-width="0"></path><g id="node_text16" fill="#333"><text id="kity_text_131" text-rendering="inherit" font-size="14" dy="1em" y="475.26007080078125" x="278.5">相关诗词（清明）</text></g></g><g id="minder_node18"><g id="node_expander20" style="cursor: pointer;"><path id="kity_path_256" fill="white" stroke="gray" d="M160.5,568.5000610351562A6,6,0,1,1,148.5,568.5000610351562A6,6,0,1,1,160.5,568.5000610351562"></path><path id="kity_path_257" fill="none" stroke="gray" d="M150,568.5000610351562L159,568.5000610351562"></path></g><path id="node_outline21" fill="#f2fae9" stroke="transparent" d="M165.5,555.5000610351562h58a5,5,0,0,1,5,5v16a5,5,0,0,1,-5,5h-58a5,5,0,0,1,-5,-5v-16a5,5,0,0,1,5,-5z" stroke-width="0"></path><g id="node_text21" fill="#333"><text id="kity_text_141" text-rendering="inherit" font-size="16" dy="1em" y="557.9400634765625" x="170.5">端午节</text></g></g><g id="minder_node19"><g id="node_expander17" style="cursor: pointer;" display="none"><path id="kity_path_247" fill="white" stroke="gray" d="M268.5,528.5000610351562A6,6,0,1,1,256.5,528.5000610351562A6,6,0,1,1,268.5,528.5000610351562"></path><path id="kity_path_248" fill="none" stroke="gray"></path></g><path id="node_outline18" fill="none" stroke="none" d="M273.5,516.5000610351562h66a5,5,0,0,1,5,5v14a5,5,0,0,1,-5,5h-66a5,5,0,0,1,-5,-5v-14a5,5,0,0,1,5,-5z" stroke-width="0"></path><g id="node_text18" fill="#333"><text id="kity_text_135" text-rendering="inherit" font-size="14" dy="1em" y="519.2600708007812" x="278.5">五月初五</text></g></g><g id="minder_node20"><g id="node_expander18" style="cursor: pointer;" display="none"><path id="kity_path_250" fill="white" stroke="gray" d="M268.5,568.5000610351562A6,6,0,1,1,256.5,568.5000610351562A6,6,0,1,1,268.5,568.5000610351562"></path><path id="kity_path_251" fill="none" stroke="gray"></path></g><path id="node_outline19" fill="none" stroke="none" d="M273.5,556.5000610351562h430a5,5,0,0,1,5,5v14a5,5,0,0,1,-5,5h-430a5,5,0,0,1,-5,-5v-14a5,5,0,0,1,5,-5z" stroke-width="0"></path><g id="node_text19" fill="#333"><text id="kity_text_137" text-rendering="inherit" font-size="14" dy="1em" y="559.2600708007812" x="278.5">主要习俗：吃粽子、赛龙舟、挂菖蒲、戴艾草、佩香囊、饮雄黄酒等</text></g></g><g id="minder_node21"><g id="node_expander19" style="cursor: pointer;" display="none"><path id="kity_path_253" fill="white" stroke="gray" d="M268.5,608.5000610351562A6,6,0,1,1,256.5,608.5000610351562A6,6,0,1,1,268.5,608.5000610351562"></path><path id="kity_path_254" fill="none" stroke="gray"></path></g><path id="node_outline20" fill="none" stroke="none" d="M273.5,596.5000610351562h164a5,5,0,0,1,5,5v14a5,5,0,0,1,-5,5h-164a5,5,0,0,1,-5,-5v-14a5,5,0,0,1,5,-5z" stroke-width="0"></path><g id="node_text20" fill="#333"><text id="kity_text_139" text-rendering="inherit" font-size="14" dy="1em" y="599.2600708007812" x="278.5">相关诗词（粽包、艾束）</text></g></g><g id="minder_node22"><g id="node_expander24" style="cursor: pointer;"><path id="kity_path_268" fill="white" stroke="gray" d="M160.5,692.5000610351562A6,6,0,1,1,148.5,692.5000610351562A6,6,0,1,1,160.5,692.5000610351562"></path><path id="kity_path_269" fill="none" stroke="gray" d="M150,692.5000610351562L159,692.5000610351562"></path></g><path id="node_outline25" fill="#f2fae9" stroke="transparent" d="M165.5,679.5000610351562h58a5,5,0,0,1,5,5v16a5,5,0,0,1,-5,5h-58a5,5,0,0,1,-5,-5v-16a5,5,0,0,1,5,-5z" stroke-width="0"></path><g id="node_text25" fill="#333"><text id="kity_text_149" text-rendering="inherit" font-size="16" dy="1em" y="681.9400634765625" x="170.5">七夕节</text></g></g><g id="minder_node23"><g id="node_expander21" style="cursor: pointer;" display="none"><path id="kity_path_259" fill="white" stroke="gray" d="M268.5,652.5000610351562A6,6,0,1,1,256.5,652.5000610351562A6,6,0,1,1,268.5,652.5000610351562"></path><path id="kity_path_260" fill="none" stroke="gray"></path></g><path id="node_outline22" fill="none" stroke="none" d="M273.5,640.5000610351562h66a5,5,0,0,1,5,5v14a5,5,0,0,1,-5,5h-66a5,5,0,0,1,-5,-5v-14a5,5,0,0,1,5,-5z" stroke-width="0"></path><g id="node_text22" fill="#333"><text id="kity_text_143" text-rendering="inherit" font-size="14" dy="1em" y="643.2600708007812" x="278.5">七月初七</text></g></g><g id="minder_node24"><g id="node_expander22" style="cursor: pointer;" display="none"><path id="kity_path_262" fill="white" stroke="gray" d="M268.5,692.5000610351562A6,6,0,1,1,256.5,692.5000610351562A6,6,0,1,1,268.5,692.5000610351562"></path><path id="kity_path_263" fill="none" stroke="gray"></path></g><path id="node_outline23" fill="none" stroke="none" d="M273.5,680.5000610351562h164a5,5,0,0,1,5,5v14a5,5,0,0,1,-5,5h-164a5,5,0,0,1,-5,-5v-14a5,5,0,0,1,5,-5z" stroke-width="0"></path><g id="node_text23" fill="#333"><text id="kity_text_145" text-rendering="inherit" font-size="14" dy="1em" y="683.2600708007812" x="278.5">主要习俗：乞巧、拜魁星</text></g></g><g id="minder_node25"><g id="node_expander23" style="cursor: pointer;" display="none"><path id="kity_path_265" fill="white" stroke="gray" d="M268.5,732.5000610351562A6,6,0,1,1,256.5,732.5000610351562A6,6,0,1,1,268.5,732.5000610351562"></path><path id="kity_path_266" fill="none" stroke="gray"></path></g><path id="node_outline24" fill="none" stroke="none" d="M273.5,720.5000610351562h234a5,5,0,0,1,5,5v14a5,5,0,0,1,-5,5h-234a5,5,0,0,1,-5,-5v-14a5,5,0,0,1,5,-5z" stroke-width="0"></path><g id="node_text24" fill="#333"><text id="kity_text_147" text-rendering="inherit" font-size="14" dy="1em" y="723.2600708007812" x="278.5">相关诗词（鹊桥、牛郎星、织女星）</text></g></g><g id="minder_node26"><g id="node_expander28" style="cursor: pointer;"><path id="kity_path_280" fill="white" stroke="gray" d="M160.5,816.5000610351562A6,6,0,1,1,148.5,816.5000610351562A6,6,0,1,1,160.5,816.5000610351562"></path><path id="kity_path_281" fill="none" stroke="gray" d="M150,816.5000610351562L159,816.5000610351562"></path></g><path id="node_outline29" fill="#f2fae9" stroke="transparent" d="M165.5,803.5000610351562h58a5,5,0,0,1,5,5v16a5,5,0,0,1,-5,5h-58a5,5,0,0,1,-5,-5v-16a5,5,0,0,1,5,-5z" stroke-width="0"></path><g id="node_text29" fill="#333"><text id="kity_text_157" text-rendering="inherit" font-size="16" dy="1em" y="805.9400634765625" x="170.5">中秋节</text></g></g><g id="minder_node27"><g id="node_expander25" style="cursor: pointer;" display="none"><path id="kity_path_271" fill="white" stroke="gray" d="M268.5,776.5000610351562A6,6,0,1,1,256.5,776.5000610351562A6,6,0,1,1,268.5,776.5000610351562"></path><path id="kity_path_272" fill="none" stroke="gray"></path></g><path id="node_outline26" fill="none" stroke="none" d="M273.5,764.5000610351562h66a5,5,0,0,1,5,5v14a5,5,0,0,1,-5,5h-66a5,5,0,0,1,-5,-5v-14a5,5,0,0,1,5,-5z" stroke-width="0"></path><g id="node_text26" fill="#333"><text id="kity_text_151" text-rendering="inherit" font-size="14" dy="1em" y="767.2600708007812" x="278.5">八月十五</text></g></g><g id="minder_node28"><g id="node_expander26" style="cursor: pointer;" display="none"><path id="kity_path_274" fill="white" stroke="gray" d="M268.5,816.5000610351562A6,6,0,1,1,256.5,816.5000610351562A6,6,0,1,1,268.5,816.5000610351562"></path><path id="kity_path_275" fill="none" stroke="gray"></path></g><path id="node_outline27" fill="none" stroke="none" d="M273.5,804.5000610351562h164a5,5,0,0,1,5,5v14a5,5,0,0,1,-5,5h-164a5,5,0,0,1,-5,-5v-14a5,5,0,0,1,5,-5z" stroke-width="0"></path><g id="node_text27" fill="#333"><text id="kity_text_153" text-rendering="inherit" font-size="14" dy="1em" y="807.2600708007812" x="278.5">相关习俗：拜月、吃月饼</text></g></g><g id="minder_node29"><g id="node_expander27" style="cursor: pointer;" display="none"><path id="kity_path_277" fill="white" stroke="gray" d="M268.5,856.5001220703125A6,6,0,1,1,256.5,856.5001220703125A6,6,0,1,1,268.5,856.5001220703125"></path><path id="kity_path_278" fill="none" stroke="gray"></path></g><path id="node_outline28" fill="none" stroke="none" d="M273.5,844.5001220703125h164a5,5,0,0,1,5,5v14a5,5,0,0,1,-5,5h-164a5,5,0,0,1,-5,-5v-14a5,5,0,0,1,5,-5z" stroke-width="0"></path><g id="node_text28" fill="#333"><text id="kity_text_155" text-rendering="inherit" font-size="14" dy="1em" y="847.2601318359375" x="278.5">相关诗句（婵娟、素娥）</text></g></g><g id="minder_node30"><g id="node_expander32" style="cursor: pointer;"><path id="kity_path_292" fill="white" stroke="gray" d="M160.5,940.5001220703125A6,6,0,1,1,148.5,940.5001220703125A6,6,0,1,1,160.5,940.5001220703125"></path><path id="kity_path_293" fill="none" stroke="gray" d="M150,940.5001220703125L159,940.5001220703125"></path></g><path id="node_outline33" fill="#f2fae9" stroke="transparent" d="M165.5,927.5001220703125h58a5,5,0,0,1,5,5v16a5,5,0,0,1,-5,5h-58a5,5,0,0,1,-5,-5v-16a5,5,0,0,1,5,-5z" stroke-width="0"></path><g id="node_text33" fill="#333"><text id="kity_text_165" text-rendering="inherit" font-size="16" dy="1em" y="929.9401245117188" x="170.5">重阳节</text></g></g><g id="minder_node31"><g id="node_expander29" style="cursor: pointer;" display="none"><path id="kity_path_283" fill="white" stroke="gray" d="M268.5,900.5001220703125A6,6,0,1,1,256.5,900.5001220703125A6,6,0,1,1,268.5,900.5001220703125"></path><path id="kity_path_284" fill="none" stroke="gray"></path></g><path id="node_outline30" fill="none" stroke="none" d="M273.5,888.5001220703125h66a5,5,0,0,1,5,5v14a5,5,0,0,1,-5,5h-66a5,5,0,0,1,-5,-5v-14a5,5,0,0,1,5,-5z" stroke-width="0"></path><g id="node_text30" fill="#333"><text id="kity_text_159" text-rendering="inherit" font-size="14" dy="1em" y="891.2601318359375" x="278.5">九月初九</text></g></g><g id="minder_node32"><g id="node_expander30" style="cursor: pointer;" display="none"><path id="kity_path_286" fill="white" stroke="gray" d="M268.5,940.5001220703125A6,6,0,1,1,256.5,940.5001220703125A6,6,0,1,1,268.5,940.5001220703125"></path><path id="kity_path_287" fill="none" stroke="gray"></path></g><path id="node_outline31" fill="none" stroke="none" d="M273.5,928.5001220703125h290a5,5,0,0,1,5,5v14a5,5,0,0,1,-5,5h-290a5,5,0,0,1,-5,-5v-14a5,5,0,0,1,5,-5z" stroke-width="0"></path><g id="node_text31" fill="#333"><text id="kity_text_161" text-rendering="inherit" font-size="14" dy="1em" y="931.2601318359375" x="278.5">主要习俗：登高、赏菊、饮菊花酒、佩茱萸等</text></g></g><g id="minder_node33"><g id="node_expander31" style="cursor: pointer;" display="none"><path id="kity_path_289" fill="white" stroke="gray" d="M268.5,980.5001220703125A6,6,0,1,1,256.5,980.5001220703125A6,6,0,1,1,268.5,980.5001220703125"></path><path id="kity_path_290" fill="none" stroke="gray"></path></g><path id="node_outline32" fill="none" stroke="none" d="M273.5,968.5001220703125h220a5,5,0,0,1,5,5v14a5,5,0,0,1,-5,5h-220a5,5,0,0,1,-5,-5v-14a5,5,0,0,1,5,-5z" stroke-width="0"></path><g id="node_text32" fill="#333"><text id="kity_text_163" text-rendering="inherit" font-size="14" dy="1em" y="971.2601318359375" x="278.5">相关诗词（茱萸、黄花酒、登高）</text></g></g></g></g></svg>